<mxfile host="app.diagrams.net" modified="2024-02-09T21:22:33.862Z" agent="Mozilla/5.0 (Windows NT 10.0; Win64; x64) AppleWebKit/537.36 (KHTML, like Gecko) Chrome/120.0.0.0 Safari/537.36 Edg/120.0.0.0" etag="M5P5FmSz-rwyZcmeOVxB" version="23.1.2" type="github">
  <diagram name="Page-1" id="QUF3VgHteG3-aB7-RYmX">
    <mxGraphModel dx="1026" dy="703" grid="1" gridSize="10" guides="1" tooltips="1" connect="1" arrows="1" fold="1" page="1" pageScale="1" pageWidth="850" pageHeight="1100" math="0" shadow="0">
      <root>
        <mxCell id="0" />
        <mxCell id="1" parent="0" />
        <mxCell id="ED84nd0-sU7mBFTJm2k1-1" value="&lt;b&gt;&lt;u&gt;Form 1 (Intro )&amp;nbsp;&lt;br&gt;&lt;/u&gt;&lt;/b&gt;First Name&lt;br&gt;Last Name&lt;br&gt;Email Address&lt;br&gt;Department" style="whiteSpace=wrap;html=1;aspect=fixed;" parent="1" vertex="1">
          <mxGeometry x="10" y="80" width="120" height="120" as="geometry" />
        </mxCell>
        <mxCell id="ED84nd0-sU7mBFTJm2k1-5" value="" style="endArrow=classic;html=1;rounded=0;" parent="1" edge="1">
          <mxGeometry relative="1" as="geometry">
            <mxPoint x="150" y="139.5" as="sourcePoint" />
            <mxPoint x="210" y="140" as="targetPoint" />
            <Array as="points">
              <mxPoint x="160" y="140" />
            </Array>
          </mxGeometry>
        </mxCell>
        <mxCell id="ED84nd0-sU7mBFTJm2k1-7" value="&lt;u style=&quot;font-weight: bold;&quot;&gt;Form 2 (Team)&lt;br&gt;&amp;nbsp;&amp;nbsp;&lt;/u&gt;Primary Care Team&lt;br&gt;Non-Primary Team" style="whiteSpace=wrap;html=1;aspect=fixed;" parent="1" vertex="1">
          <mxGeometry x="220" y="85" width="115" height="115" as="geometry" />
        </mxCell>
        <mxCell id="ED84nd0-sU7mBFTJm2k1-12" value="" style="edgeStyle=orthogonalEdgeStyle;rounded=0;orthogonalLoop=1;jettySize=auto;html=1;" parent="1" source="ED84nd0-sU7mBFTJm2k1-8" target="ED84nd0-sU7mBFTJm2k1-11" edge="1">
          <mxGeometry relative="1" as="geometry" />
        </mxCell>
        <mxCell id="ED84nd0-sU7mBFTJm2k1-8" value="IF/Logic" style="rounded=0;whiteSpace=wrap;html=1;" parent="1" vertex="1">
          <mxGeometry x="390" y="120" width="120" height="40" as="geometry" />
        </mxCell>
        <mxCell id="ED84nd0-sU7mBFTJm2k1-9" value="" style="endArrow=classic;html=1;rounded=0;" parent="1" edge="1">
          <mxGeometry relative="1" as="geometry">
            <mxPoint x="350" y="139.5" as="sourcePoint" />
            <mxPoint x="390" y="140" as="targetPoint" />
          </mxGeometry>
        </mxCell>
        <mxCell id="ED84nd0-sU7mBFTJm2k1-31" value="" style="edgeStyle=orthogonalEdgeStyle;rounded=0;orthogonalLoop=1;jettySize=auto;html=1;" parent="1" source="ED84nd0-sU7mBFTJm2k1-11" target="ED84nd0-sU7mBFTJm2k1-13" edge="1">
          <mxGeometry relative="1" as="geometry" />
        </mxCell>
        <mxCell id="ED84nd0-sU7mBFTJm2k1-11" value="&lt;b style=&quot;text-decoration-line: underline;&quot;&gt;Meaning&lt;/b&gt;&lt;br&gt;Yes/No" style="shape=hexagon;perimeter=hexagonPerimeter2;whiteSpace=wrap;html=1;fixedSize=1;" parent="1" vertex="1">
          <mxGeometry x="570" y="90" width="120" height="80" as="geometry" />
        </mxCell>
        <mxCell id="ED84nd0-sU7mBFTJm2k1-13" value="&lt;b style=&quot;text-decoration-line: underline;&quot;&gt;Form 3 (Primary Care)&lt;/b&gt;&lt;br&gt;New Team&lt;br&gt;Restrict Consults&lt;br&gt;Auto-Assigned Team to Clinic&lt;br&gt;Auto- Discharged From Team to Clinic" style="whiteSpace=wrap;html=1;aspect=fixed;" parent="1" vertex="1">
          <mxGeometry x="710" y="65" width="130" height="130" as="geometry" />
        </mxCell>
        <mxCell id="ED84nd0-sU7mBFTJm2k1-15" value="&lt;b style=&quot;text-decoration-line: underline;&quot;&gt;Form 4 (Non-Primary Care)&lt;br&gt;&lt;/b&gt;Service&lt;br&gt;New Team&lt;br&gt;TPA: Y/N&lt;br&gt;OIF OEF Needed : Y/N&lt;br&gt;Restrict Consults&lt;br&gt;Auto-Assigned Team to Clinic&lt;br style=&quot;border-color: var(--border-color);&quot;&gt;Auto- Discharged From Team to Clinic" style="whiteSpace=wrap;html=1;aspect=fixed;" parent="1" vertex="1">
          <mxGeometry x="450" y="210" width="180" height="180" as="geometry" />
        </mxCell>
        <mxCell id="ED84nd0-sU7mBFTJm2k1-55" value="" style="edgeStyle=orthogonalEdgeStyle;rounded=0;orthogonalLoop=1;jettySize=auto;html=1;" parent="1" source="ED84nd0-sU7mBFTJm2k1-16" edge="1">
          <mxGeometry relative="1" as="geometry">
            <mxPoint x="160" y="250" as="targetPoint" />
          </mxGeometry>
        </mxCell>
        <mxCell id="ED84nd0-sU7mBFTJm2k1-16" value="IF/Logic" style="rounded=0;whiteSpace=wrap;html=1;" parent="1" vertex="1">
          <mxGeometry x="10" y="250" width="100" height="40" as="geometry" />
        </mxCell>
        <mxCell id="ED84nd0-sU7mBFTJm2k1-59" value="" style="edgeStyle=orthogonalEdgeStyle;rounded=0;orthogonalLoop=1;jettySize=auto;html=1;" parent="1" source="ED84nd0-sU7mBFTJm2k1-24" target="ED84nd0-sU7mBFTJm2k1-15" edge="1">
          <mxGeometry relative="1" as="geometry">
            <Array as="points">
              <mxPoint x="405" y="270" />
              <mxPoint x="405" y="290" />
            </Array>
          </mxGeometry>
        </mxCell>
        <mxCell id="ED84nd0-sU7mBFTJm2k1-24" value="&lt;b style=&quot;text-decoration-line: underline;&quot;&gt;Report Access&lt;/b&gt;&lt;br&gt;Y/N" style="rounded=1;whiteSpace=wrap;html=1;" parent="1" vertex="1">
          <mxGeometry x="180" y="240" width="180" height="60" as="geometry" />
        </mxCell>
        <mxCell id="ED84nd0-sU7mBFTJm2k1-29" style="edgeStyle=orthogonalEdgeStyle;rounded=0;orthogonalLoop=1;jettySize=auto;html=1;exitX=0.375;exitY=1;exitDx=0;exitDy=0;entryX=0.317;entryY=0.95;entryDx=0;entryDy=0;entryPerimeter=0;" parent="1" source="ED84nd0-sU7mBFTJm2k1-11" target="ED84nd0-sU7mBFTJm2k1-11" edge="1">
          <mxGeometry relative="1" as="geometry" />
        </mxCell>
        <mxCell id="ED84nd0-sU7mBFTJm2k1-60" value="" style="edgeStyle=none;orthogonalLoop=1;jettySize=auto;html=1;rounded=0;" parent="1" edge="1">
          <mxGeometry width="100" relative="1" as="geometry">
            <mxPoint x="630" y="269.5" as="sourcePoint" />
            <mxPoint x="680" y="269.5" as="targetPoint" />
            <Array as="points" />
          </mxGeometry>
        </mxCell>
        <mxCell id="ED84nd0-sU7mBFTJm2k1-67" style="edgeStyle=orthogonalEdgeStyle;rounded=0;orthogonalLoop=1;jettySize=auto;html=1;" parent="1" source="ED84nd0-sU7mBFTJm2k1-62" target="ED84nd0-sU7mBFTJm2k1-64" edge="1">
          <mxGeometry relative="1" as="geometry">
            <Array as="points">
              <mxPoint x="750" y="470" />
              <mxPoint x="100" y="470" />
            </Array>
          </mxGeometry>
        </mxCell>
        <mxCell id="ED84nd0-sU7mBFTJm2k1-62" value="&lt;u style=&quot;font-weight: bold;&quot;&gt;Supervisor&lt;/u&gt;&lt;br&gt;Approved&lt;br&gt;Disapproved" style="shape=hexagon;perimeter=hexagonPerimeter2;whiteSpace=wrap;html=1;fixedSize=1;" parent="1" vertex="1">
          <mxGeometry x="690" y="230" width="120" height="100" as="geometry" />
        </mxCell>
        <mxCell id="ED84nd0-sU7mBFTJm2k1-64" value="&lt;b style=&quot;text-decoration-line: underline;&quot;&gt;PCMM Coordinator&lt;/b&gt;&lt;br&gt;Approved&amp;nbsp;&lt;br&gt;Disapproved&amp;nbsp;" style="whiteSpace=wrap;html=1;aspect=fixed;" parent="1" vertex="1">
          <mxGeometry x="10" y="330" width="140" height="140" as="geometry" />
        </mxCell>
        <mxCell id="ED84nd0-sU7mBFTJm2k1-70" style="edgeStyle=orthogonalEdgeStyle;rounded=0;orthogonalLoop=1;jettySize=auto;html=1;exitX=0.75;exitY=1;exitDx=0;exitDy=0;entryX=0.5;entryY=1;entryDx=0;entryDy=0;" parent="1" source="ED84nd0-sU7mBFTJm2k1-7" target="ED84nd0-sU7mBFTJm2k1-7" edge="1">
          <mxGeometry relative="1" as="geometry" />
        </mxCell>
        <mxCell id="ED84nd0-sU7mBFTJm2k1-71" style="edgeStyle=orthogonalEdgeStyle;rounded=0;orthogonalLoop=1;jettySize=auto;html=1;exitX=0.5;exitY=1;exitDx=0;exitDy=0;entryX=0.217;entryY=0.975;entryDx=0;entryDy=0;entryPerimeter=0;" parent="1" source="ED84nd0-sU7mBFTJm2k1-11" target="ED84nd0-sU7mBFTJm2k1-11" edge="1">
          <mxGeometry relative="1" as="geometry" />
        </mxCell>
        <mxCell id="ED84nd0-sU7mBFTJm2k1-72" style="edgeStyle=orthogonalEdgeStyle;rounded=0;orthogonalLoop=1;jettySize=auto;html=1;exitX=0.25;exitY=1;exitDx=0;exitDy=0;entryX=0.346;entryY=1;entryDx=0;entryDy=0;entryPerimeter=0;" parent="1" source="ED84nd0-sU7mBFTJm2k1-13" target="ED84nd0-sU7mBFTJm2k1-13" edge="1">
          <mxGeometry relative="1" as="geometry" />
        </mxCell>
      </root>
    </mxGraphModel>
  </diagram>
</mxfile>
